<mxfile host="app.diagrams.net" modified="2022-12-10T13:01:33.264Z" agent="5.0 (Macintosh; Intel Mac OS X 10_15_7) AppleWebKit/537.36 (KHTML, like Gecko) Chrome/107.0.0.0 Safari/537.36" version="20.6.2" etag="J8DtQYlyml7dFBof2O7V" type="github">
  <diagram id="i2ouLhWRbfOoS8nrUVSH" name="第 1 页">
    <mxGraphModel dx="1018" dy="546" grid="1" gridSize="10" guides="1" tooltips="1" connect="1" arrows="1" fold="1" page="1" pageScale="1" pageWidth="827" pageHeight="1169" math="0" shadow="0">
      <root>
        <mxCell id="0" />
        <mxCell id="1" parent="0" />
        <mxCell id="ZDacxSfY3c3tZTAQIVvS-4" value="" style="edgeStyle=orthogonalEdgeStyle;rounded=0;orthogonalLoop=1;jettySize=auto;html=1;" edge="1" parent="1" source="ZDacxSfY3c3tZTAQIVvS-1" target="ZDacxSfY3c3tZTAQIVvS-3">
          <mxGeometry relative="1" as="geometry" />
        </mxCell>
        <mxCell id="ZDacxSfY3c3tZTAQIVvS-5" value="" style="edgeStyle=orthogonalEdgeStyle;rounded=0;orthogonalLoop=1;jettySize=auto;html=1;" edge="1" parent="1" source="ZDacxSfY3c3tZTAQIVvS-1" target="ZDacxSfY3c3tZTAQIVvS-3">
          <mxGeometry relative="1" as="geometry" />
        </mxCell>
        <mxCell id="ZDacxSfY3c3tZTAQIVvS-6" value="" style="edgeStyle=orthogonalEdgeStyle;rounded=0;orthogonalLoop=1;jettySize=auto;html=1;" edge="1" parent="1" source="ZDacxSfY3c3tZTAQIVvS-1" target="ZDacxSfY3c3tZTAQIVvS-3">
          <mxGeometry relative="1" as="geometry" />
        </mxCell>
        <mxCell id="ZDacxSfY3c3tZTAQIVvS-8" style="edgeStyle=orthogonalEdgeStyle;rounded=0;orthogonalLoop=1;jettySize=auto;html=1;exitX=0.5;exitY=1;exitDx=0;exitDy=0;entryX=0.5;entryY=0;entryDx=0;entryDy=0;" edge="1" parent="1" source="ZDacxSfY3c3tZTAQIVvS-1" target="ZDacxSfY3c3tZTAQIVvS-7">
          <mxGeometry relative="1" as="geometry" />
        </mxCell>
        <mxCell id="ZDacxSfY3c3tZTAQIVvS-1" value="售楼系统" style="rounded=0;whiteSpace=wrap;html=1;" vertex="1" parent="1">
          <mxGeometry x="354" y="70" width="120" height="60" as="geometry" />
        </mxCell>
        <mxCell id="ZDacxSfY3c3tZTAQIVvS-3" value="管理员" style="whiteSpace=wrap;html=1;rounded=0;" vertex="1" parent="1">
          <mxGeometry x="260" y="210" width="120" height="60" as="geometry" />
        </mxCell>
        <mxCell id="ZDacxSfY3c3tZTAQIVvS-7" value="客户" style="whiteSpace=wrap;html=1;rounded=0;" vertex="1" parent="1">
          <mxGeometry x="414" y="210" width="120" height="60" as="geometry" />
        </mxCell>
      </root>
    </mxGraphModel>
  </diagram>
</mxfile>
